HIERARCHY
ROOT Hips
{
	OFFSET -3.958830 18.904000 13.208200
	CHANNELS 6 Xposition Yposition Zposition Zrotation Yrotation Xrotation 
	JOINT LHipJoint
	{
		OFFSET 0.000000 0.000000 0.000000
		CHANNELS 3 Zrotation Yrotation Xrotation
		JOINT LeftUpLeg
		{
			OFFSET 1.800000 -1.400000 0.085000
			CHANNELS 3 Zrotation Yrotation Xrotation
			JOINT LeftLeg
			{
				OFFSET 2.215000 -6.000000 0.000000
				CHANNELS 3 Zrotation Yrotation Xrotation
				JOINT LeftFoot
				{
					OFFSET 2.500000 -6.900000 0.000000
					CHANNELS 3 Zrotation Yrotation Xrotation
					JOINT LeftToeBase
					{
						OFFSET 0.200000 -0.500000 1.950000
						CHANNELS 3 Zrotation Yrotation Xrotation
						End Site
						{
							OFFSET 0.000000 0.000000 0.000000
						}
					}
				}
			}
		}
	}
	JOINT RHipJoint
	{
		OFFSET 0.000000 0.000000 0.000000
		CHANNELS 3 Zrotation Yrotation Xrotation
		JOINT RightUpLeg
		{
			OFFSET -1.800000 -1.400000 0.085000
			CHANNELS 3 Zrotation Yrotation Xrotation
			JOINT RightLeg
			{
				OFFSET -2.215000 -6.000000 0.000000
				CHANNELS 3 Zrotation Yrotation Xrotation
				JOINT RightFoot
				{
					OFFSET -2.500000 -6.900000 0.000000
					CHANNELS 3 Zrotation Yrotation Xrotation
					JOINT RightToeBase
					{
						OFFSET -0.200000 -0.500000 1.950000
						CHANNELS 3 Zrotation Yrotation Xrotation
						End Site
						{
							OFFSET 0.000000 0.000000 0.000000
						}
					}
				}
			}
		}
	}
	JOINT LowerBack
	{
		OFFSET 0.000000 0.000000 0.000000
		CHANNELS 3 Zrotation Yrotation Xrotation
		JOINT Spine
		{
			OFFSET -0.087000 1.940000 -0.288900
			CHANNELS 3 Zrotation Yrotation Xrotation
			JOINT Spine1
			{
				OFFSET 0.000000 1.950000 0.060000
				CHANNELS 3 Zrotation Yrotation Xrotation
				JOINT Neck
				{
					OFFSET 0.000000 0.000000 0.000000
					CHANNELS 3 Zrotation Yrotation Xrotation
					JOINT Neck1
					{
						OFFSET 0.000000 1.600000 0.340000
						CHANNELS 3 Zrotation Yrotation Xrotation
						JOINT Head
						{
							OFFSET 0.000000 1.667000 -0.240000
							CHANNELS 3 Zrotation Yrotation Xrotation
							End Site
							{
								OFFSET 0.000000 0.000000 0.000000
							}
						}
					}
				}
				JOINT LeftShoulder
				{
					OFFSET 0.000000 0.000000 0.000000
					CHANNELS 3 Zrotation Yrotation Xrotation
					JOINT LeftArm
					{
						OFFSET 2.700000 1.550000 -0.730000
						CHANNELS 3 Zrotation Yrotation Xrotation
						JOINT LeftForeArm
						{
							OFFSET 5.450000 0.000000 0.000000
							CHANNELS 3 Zrotation Yrotation Xrotation
							JOINT LeftHand
							{
								OFFSET 3.450000 0.000000 0.000000
								CHANNELS 3 Zrotation Yrotation Xrotation
								JOINT LeftHandIndex1
								{
									OFFSET 0.750000 0.000000 0.000000
									CHANNELS 3 Zrotation Yrotation Xrotation
									End Site
									{
										OFFSET 0.000000 0.000000 0.000000
									}
								}
							}
						}
					}
				}
				JOINT RightShoulder
				{
					OFFSET 0.000000 0.000000 0.000000
					CHANNELS 3 Zrotation Yrotation Xrotation
					JOINT RightArm
					{
						OFFSET -2.700000 1.550000 -0.730000
						CHANNELS 3 Zrotation Yrotation Xrotation
						JOINT RightForeArm
						{
							OFFSET -5.450000 0.000000 0.000000
							CHANNELS 3 Zrotation Yrotation Xrotation
							JOINT RightHand
							{
								OFFSET -3.450000 0.000000 0.000000
								CHANNELS 3 Zrotation Yrotation Xrotation
								JOINT RightHandIndex1
								{
									OFFSET -0.750000 0.000000 0.000000
									CHANNELS 3 Zrotation Yrotation Xrotation
									End Site
									{
										OFFSET 0.000000 0.000000 0.000000
									}
								}
							}
						}
					}
				}
			}
		}
	}
}
MOTION
Frames: 14
Frame Time: 0.016667
-1.671150 17.987870 -13.291300 -5.815135 25.903584 8.603080 -14.614303 12.070052 2.369588 2.025336 -1.269364 -11.465484 -2.710524 4.199406 14.366351 -0.931799 3.160460 3.441802 0.989770 0.686470 0.823200 18.825688 -10.531174 5.593903 -3.817072 10.327475 -50.049830 3.570057 -1.375923 1.660583 -0.130778 -0.498380 3.982001 0.424340 -0.145230 0.246350 -5.715170 1.604925 -9.870118 31.249692 -5.100409 30.097799 -5.884452 0.760528 17.513169 2.012441 1.948726 -23.547335 3.046062 -8.333994 43.148571 7.390290 -6.413290 -35.718100 3.300656 -35.901749 32.340501 92.781064 -61.221071 -149.788839 2.282584 -36.699569 -9.643459 -5.286075 2.856046 0.871290 -0.279150 0.374230 0.212010 -6.821493 33.786949 -3.703907 23.269255 53.705330 -1.674453 -21.036789 39.987400 -7.524575 1.873399 -1.007365 -0.077080 0.326600 -0.268670 -0.258690 
-1.671560 17.996470 -13.291240 -5.563923 25.857511 7.377909 -14.655193 12.288809 2.391092 1.626945 -1.213362 -11.300930 -1.854776 4.279214 16.285818 -0.883663 3.278229 3.402350 0.973220 0.666310 0.819530 18.745505 -10.615966 5.382722 -2.581211 9.612768 -47.747495 4.093880 -1.507204 1.931634 -0.144855 -0.522381 3.988733 0.399630 -0.161220 0.230170 -5.587724 1.299513 -9.685728 30.577725 -5.338306 30.548536 -5.632950 0.685931 18.148089 1.963304 1.708991 -23.752070 2.312581 -8.143257 44.148584 8.139720 -6.310880 -36.389020 2.335341 -35.131627 33.512812 92.495562 -60.974169 -149.343580 1.765120 -36.753722 -9.512701 -5.150462 2.979094 0.898720 -0.308560 0.391260 0.211430 -5.809480 34.019663 -3.309374 23.509775 53.093689 -2.951167 -19.721908 42.233043 -7.311706 1.782742 -1.026957 -0.083860 0.329380 -0.275200 -0.261420 
-1.681450 17.996720 -13.282400 -5.678977 26.255858 6.344357 -14.632980 12.380825 2.365236 1.247851 -1.310987 -12.228171 -0.145884 4.241955 19.775270 -0.844190 3.453024 3.320183 1.000210 0.694140 0.817600 18.738733 -10.759314 5.335191 -2.699789 9.736324 -46.641219 5.623677 -1.956223 5.597810 -0.153038 -0.683227 3.916756 0.415330 -0.155740 0.240240 -5.679138 1.341189 -9.653110 31.123161 -5.465574 30.376886 -5.370968 0.527479 18.660894 1.826594 1.079509 -24.083324 1.164882 -7.686200 44.831931 8.639260 -6.744420 -34.626140 2.439777 -34.750940 33.821895 92.424252 -61.033211 -150.068832 -0.023311 -36.214957 -9.119887 -5.197138 3.109299 0.867210 -0.303780 0.382250 0.228500 -5.458631 34.135800 -3.196096 22.871237 52.837447 -2.765155 -18.282237 40.817170 -6.434090 1.809440 -1.108231 -0.058650 0.309810 -0.289900 -0.241750 
-1.682720 17.978810 -13.263600 -5.853562 26.567338 5.598370 -14.652521 12.497229 2.402214 0.951185 -1.510755 -13.593281 1.244915 4.227345 23.159392 -0.792660 3.682859 3.194663 1.022200 0.718170 0.842730 18.695560 -10.776860 5.342017 -2.951578 10.083620 -46.221542 7.475466 -2.879794 11.062397 -0.209689 -1.045131 3.772525 0.407260 -0.194230 0.275350 -5.643964 1.152105 -9.669939 30.883712 -5.492886 30.796592 -4.497021 0.441721 18.025104 1.694928 1.310156 -24.680179 1.638738 -7.439947 45.194299 7.058300 -5.943440 -34.389550 2.205119 -33.798469 33.206613 93.682855 -62.773246 -150.485198 -1.191125 -35.573221 -8.586527 -5.247124 3.184348 0.864370 -0.301500 0.409530 0.223030 -5.155693 33.315085 -2.081434 24.393570 53.229055 -2.595427 -19.478467 40.851063 -7.061819 1.762732 -1.159096 -0.018630 0.259740 -0.304430 -0.249320 
-1.692470 17.978080 -13.244230 -6.059820 26.608396 4.915734 -14.536798 12.496463 2.349341 1.087122 -1.759612 -14.938971 1.604843 4.609889 26.652240 -0.710625 4.116777 3.024582 1.020050 0.725380 0.845330 18.856393 -10.640430 5.255482 -2.823047 10.643576 -45.587452 9.092248 -3.784919 15.666201 -0.269907 -1.532997 3.602892 0.412720 -0.182000 0.265190 -6.144925 0.992281 -9.443550 31.769707 -6.968998 35.331351 -5.167931 -0.949953 9.055336 0.968543 1.448330 -24.922993 1.266129 -7.090338 47.169500 6.158480 -5.867710 -32.957460 -1.154324 -34.570804 18.982155 111.821812 -82.830673 -161.903404 10.225005 -28.767239 -7.543723 -4.817938 2.313494 0.837040 -0.283830 0.399950 0.230990 -2.166207 33.322985 2.112167 28.524549 54.429405 -1.975596 -17.178533 42.106926 -6.912561 1.844378 -1.303373 -0.018700 0.269630 -0.314780 -0.242570 
-1.711270 17.974280 -13.230640 -5.932850 25.463097 4.738759 -14.880817 12.990613 2.472606 1.086189 -1.999321 -17.026860 2.383939 4.974776 30.305338 -0.599261 4.679935 2.783341 1.068870 0.771580 0.901690 18.550050 -9.959663 5.175692 -2.142334 11.527548 -44.587861 10.178339 -4.400278 19.017389 -0.317054 -1.886299 3.464972 0.437870 -0.230390 0.291570 -5.019677 -1.091570 -8.959108 26.425283 -7.638804 30.006266 -3.675943 -3.570726 10.199878 0.650004 2.240416 -14.978454 -0.089054 -5.464582 46.392356 4.601430 -4.609790 -31.653430 -3.942975 -49.614120 0.243684 -26.231227 -58.592527 12.449454 15.530719 -35.448600 -5.338682 -3.493439 2.309854 0.818860 -0.278950 0.416420 0.224640 1.851530 44.966691 8.502535 26.349107 50.441670 -1.767009 -18.180523 39.366149 -6.780770 1.747687 -1.202357 0.013950 0.209740 -0.347780 -0.260960 
-1.732950 17.955690 -13.216680 -5.697371 25.447118 4.881926 -14.949805 12.946850 2.616060 0.987353 -2.928650 -18.743844 2.641390 5.056921 33.403628 -0.560100 5.120613 2.600149 1.096390 0.797140 0.931040 18.500517 -9.840450 5.102036 -1.140791 11.238870 -44.761613 10.708503 -5.394430 22.782362 -0.407378 -2.419284 3.263368 0.463730 -0.243040 0.304440 -4.812285 -1.383342 -8.922237 24.467837 -7.723298 29.238991 -2.192488 -4.092830 10.534277 0.322078 2.545847 -14.569977 0.359932 -4.672572 46.238594 3.558610 -3.451070 -30.756110 -2.199342 -49.676063 -0.980028 -23.777750 -56.431465 10.715933 14.594168 -35.205156 -4.927191 -3.455535 2.468399 0.821370 -0.265340 0.421840 0.225270 0.941896 45.179646 8.545725 26.360970 50.982868 -0.353498 -18.851940 36.494881 -6.566589 1.763480 -1.198494 0.012750 0.195410 -0.358150 -0.279210 
-1.742120 17.937510 -13.205280 -5.763651 25.155588 4.591730 -14.996225 12.894977 2.722168 1.018709 -3.749383 -19.689916 2.937737 5.043154 35.796259 -0.559202 5.525442 2.434550 1.090530 0.765750 0.965970 18.477371 -9.748502 5.046646 -0.054628 11.091433 -44.893731 10.666498 -6.509429 27.247378 -0.509625 -3.084129 3.007765 0.470050 -0.249500 0.316460 -4.672427 -1.591901 -8.906922 23.320902 -7.908402 28.919196 -1.196127 -4.500424 10.797342 0.175612 2.773147 -14.310284 0.715757 -4.121681 46.252933 2.143310 -2.542620 -29.996800 -1.168546 -49.788952 -2.145205 -21.348395 -54.612193 9.190564 13.458395 -32.748241 -4.353980 -3.496775 2.582156 0.841110 -0.247620 0.414330 0.192440 0.326625 45.299729 8.582219 25.770643 51.042348 0.635541 -19.663753 32.745851 -6.312128 1.810917 -1.199618 -0.014230 0.190540 -0.334880 -0.318660 
-1.761730 17.901000 -13.190130 -5.489129 24.098541 4.336578 -15.070437 12.895364 2.799706 1.186849 -4.389694 -19.797035 2.414830 5.387471 37.540345 -0.539337 5.908972 2.307731 1.108310 0.794180 1.011500 18.429836 -9.586658 5.024073 1.246956 11.086008 -45.354658 9.633340 -7.402449 32.256769 -0.641253 -3.818744 2.754826 0.512680 -0.227810 0.304770 -4.419381 -1.975584 -8.920316 20.410669 -7.607940 28.894848 0.699792 -4.905891 11.641740 -0.106309 3.244450 -13.867727 1.911501 -2.931286 45.424829 0.797480 -0.611420 -29.171700 0.787027 -50.037303 -3.565974 -17.773169 -51.720097 6.437408 12.706964 -29.088327 -3.919878 -3.537356 2.720671 0.834040 -0.210950 0.410220 0.192790 -0.787904 45.775587 7.895345 23.703574 50.991851 1.825129 -20.878600 27.641222 -6.094789 1.932248 -1.194375 -0.047160 0.233000 -0.345790 -0.339490 
-1.746810 17.856190 -13.188350 -6.144269 24.058438 4.281720 -15.095255 12.764161 2.805790 1.834513 -5.065149 -20.497148 2.022747 5.582989 38.855850 -0.552804 6.201991 2.199748 1.089580 0.772940 1.029380 18.464730 -9.393467 5.052269 1.448384 11.253891 -46.719907 10.317671 -9.031104 36.972055 -0.797756 -4.799579 2.422628 0.528760 -0.210190 0.298160 -4.374503 -2.134922 -8.897194 20.331948 -8.370533 27.905967 1.453268 -5.911592 11.407203 -0.017484 3.347176 -13.017396 2.423382 -1.821701 44.281949 -1.541260 1.011920 -27.875660 2.225477 -49.782196 -4.627049 -15.115780 -49.409322 5.046086 12.257805 -25.659263 -3.541819 -3.585921 2.831308 0.821210 -0.162140 0.382020 0.173750 -2.199994 45.399865 6.656818 22.541791 50.790911 4.013777 -20.462594 23.137700 -5.367550 2.025057 -1.210812 -0.085600 0.244420 -0.331020 -0.371290 
-1.747730 17.815410 -13.171860 -6.803992 23.174558 3.872163 -15.120976 12.796463 2.621200 2.804744 -4.669376 -19.605824 1.503338 5.903909 38.095536 -0.479132 6.159353 2.225787 1.070850 0.767000 0.999090 18.480277 -9.155661 5.225828 0.977944 12.279956 -47.827694 12.220189 -11.015623 41.619021 -1.015226 -5.941586 2.060875 0.498500 -0.190440 0.327110 -4.290254 -2.426339 -8.878785 20.144312 -8.546588 27.776883 2.416268 -6.285974 11.104967 -0.349764 2.674875 -12.571090 1.125973 -0.988060 43.778706 -2.110920 1.419150 -25.715160 3.785078 -49.772435 -6.018468 -11.877502 -46.606242 3.271500 11.881537 -22.124872 -3.093031 -3.586226 3.040612 0.747190 -0.128930 0.366730 0.186440 -3.040101 46.159074 5.753750 19.396633 49.123006 4.964045 -18.551330 18.419742 -4.162327 2.220324 -1.253368 -0.035280 0.196000 -0.339540 -0.333310 
-1.729710 17.798850 -13.142100 -7.307655 22.933431 2.683220 -15.196150 13.040467 2.473703 3.921448 -4.334834 -17.447445 0.619770 6.211265 36.686844 -0.435621 6.087610 2.269281 0.986180 0.682150 0.949050 18.408699 -8.990099 5.185308 0.621430 12.081730 -47.430906 13.899989 -13.255878 45.367200 -1.220278 -6.973196 1.768409 0.422530 -0.181030 0.312690 -4.055901 -3.012275 -8.760560 19.474088 -9.290174 28.990322 3.303158 -7.028447 10.351601 -0.062859 1.801296 -11.984921 -0.399002 0.250715 43.477455 -3.031620 2.339910 -25.263260 3.748797 -48.528221 -5.177124 -6.870405 -42.300988 -0.382414 13.910893 -21.653173 -3.527767 -3.556695 3.137792 0.740800 -0.124500 0.352770 0.162160 -3.516759 45.445510 3.691710 15.912568 45.678793 4.553437 -14.520164 19.737235 -2.818152 2.217582 -1.178585 -0.039730 0.185000 -0.307570 -0.329750 
-1.716100 17.775540 -13.097460 -7.504886 23.811516 2.282383 -15.299481 13.319103 2.406383 4.453842 -4.220315 -16.341144 1.023979 5.931649 35.487532 -0.327662 5.886358 2.364160 0.877330 0.509360 0.940740 18.292361 -8.773281 5.209265 -0.925003 11.524937 -47.650833 17.266709 -16.247429 47.783509 -1.460530 -7.998630 1.479226 0.246450 -0.231350 0.347580 -3.747320 -3.764091 -8.783237 18.856199 -10.099047 30.081094 4.406139 -7.628165 8.711151 0.611194 1.338961 -13.040916 -1.367865 0.899778 44.986521 -5.964620 3.662980 -24.236780 2.801216 -45.632940 -2.621557 -2.496992 -38.342859 -2.688803 15.933693 -21.951346 -3.776982 -3.515789 3.179234 0.763550 -0.154650 0.378070 0.122390 -3.974355 42.859048 3.959593 14.466701 42.785406 2.623514 -16.091032 21.891011 -3.162984 2.201148 -1.190967 -0.001560 0.083340 -0.294710 -0.342680 
-1.690350 17.773430 -13.046810 -7.637095 24.055640 1.589411 -15.351244 13.490562 2.273839 4.927736 -3.769179 -14.234907 0.800426 5.932902 33.636565 -0.285090 5.647343 2.440732 0.828170 0.441570 0.945430 18.241682 -8.640658 5.237528 -1.944353 11.198625 -47.681139 19.391046 -18.888186 50.805438 -1.706552 -8.990489 1.175231 0.172560 -0.316760 0.330830 -3.597654 -4.172123 -8.751702 18.776767 -10.780096 31.024562 4.595131 -8.270096 8.387882 1.188181 0.831048 -13.482239 -2.180039 1.613393 45.514500 -7.345070 4.628850 -24.640830 2.783038 -41.636672 0.122816 2.731266 -33.447866 -4.257419 16.920341 -20.550266 -3.450523 -3.456950 3.195313 0.789330 -0.216910 0.403320 0.075930 -5.059517 39.012859 3.768307 11.942219 39.654927 -0.129783 -18.142436 25.782134 -3.908375 2.162128 -1.204946 0.016350 0.011340 -0.296220 -0.363710 
